<?xml version="1.0" encoding="UTF-8" standalone="no"?>
<svg
   xmlns:dc="http://purl.org/dc/elements/1.1/"
   xmlns:cc="http://creativecommons.org/ns#"
   xmlns:rdf="http://www.w3.org/1999/02/22-rdf-syntax-ns#"
   xmlns:svg="http://www.w3.org/2000/svg"
   xmlns="http://www.w3.org/2000/svg"
   xmlns:sodipodi="http://sodipodi.sourceforge.net/DTD/sodipodi-0.dtd"
   xmlns:inkscape="http://www.inkscape.org/namespaces/inkscape"
   version="1.1"
   id="svg2"
   inkscape:version="0.91 r13725"
   sodipodi:docname="lim.svg"
   width="229.25136"
   height="149.36687">
  <metadata
     id="metadata346">
    <rdf:RDF>
      <cc:Work
         rdf:about="">
        <dc:format>image/svg+xml</dc:format>
        <dc:type
           rdf:resource="http://purl.org/dc/dcmitype/StillImage" />
        <dc:title></dc:title>
      </cc:Work>
    </rdf:RDF>
  </metadata>
  <sodipodi:namedview
     pagecolor="#ffffff"
     bordercolor="#666666"
     borderopacity="1"
     objecttolerance="10"
     gridtolerance="10"
     guidetolerance="10"
     inkscape:pageopacity="0"
     inkscape:pageshadow="2"
     inkscape:window-width="1440"
     inkscape:window-height="844"
     id="namedview344"
     showgrid="false"
     fit-margin-top="1"
     fit-margin-left="1"
     fit-margin-bottom="1"
     fit-margin-right="1"
     showguides="true"
     inkscape:guide-bbox="true"
     inkscape:snap-object-midpoints="true"
     inkscape:zoom="3.337544"
     inkscape:cx="117.18132"
     inkscape:cy="86.201072"
     inkscape:window-x="-4"
     inkscape:window-y="-4"
     inkscape:window-maximized="1"
     inkscape:current-layer="g4">
    <sodipodi:guide
       position="12.417842,117.55277"
       orientation="1,0"
       id="guide4474" />
    <sodipodi:guide
       position="110.6937,124.14444"
       orientation="0,1"
       id="guide4478" />
  </sodipodi:namedview>
  <g
     transform="matrix(0.71965276,0,0,0.71965276,-39.244771,-2.6702291)"
     id="g4">
    <g
       clip-path="url(#cp1)"
       id="g6">
      <clipPath
         id="cp1">
        <polygon
           points="371,205 371,5 66,5 66,205 "
           id="polygon9" />
      </clipPath>
      <circle
         cx="87"
         cy="159"
         id="ellipse11"
         r="1.5"
         style="opacity:1;fill:#3f3d99;stroke:none" />
      <circle
         cx="101"
         cy="106"
         id="ellipse13"
         r="1.5"
         style="opacity:1;fill:#3f3d99;stroke:none" />
      <circle
         cx="116"
         cy="86"
         id="ellipse15"
         r="1.5"
         style="opacity:1;fill:#3f3d99;stroke:none" />
      <circle
         cx="131"
         cy="75"
         id="ellipse17"
         r="1.5"
         style="opacity:1;fill:#3f3d99;stroke:none" />
      <circle
         cx="145"
         cy="68"
         id="ellipse19"
         r="1.5"
         style="opacity:1;fill:#3f3d99;stroke:none" />
      <circle
         cx="160"
         cy="63"
         id="ellipse21"
         r="1.5"
         style="opacity:1;fill:#3f3d99;stroke:none" />
      <circle
         cx="174"
         cy="60"
         id="ellipse23"
         r="1.5"
         style="opacity:1;fill:#3f3d99;stroke:none" />
      <circle
         cx="189"
         cy="57"
         id="ellipse25"
         r="1.5"
         style="opacity:1;fill:#3f3d99;stroke:none" />
      <circle
         cx="203"
         cy="55"
         id="ellipse27"
         r="1.5"
         style="opacity:1;fill:#3f3d99;stroke:none" />
      <circle
         cx="218"
         cy="54"
         id="ellipse29"
         r="1.5"
         style="opacity:1;fill:#3f3d99;stroke:none" />
      <circle
         cx="233"
         cy="52"
         id="ellipse31"
         r="1.5"
         style="opacity:1;fill:#3f3d99;stroke:none" />
      <circle
         cx="247"
         cy="51"
         id="ellipse33"
         r="1.5"
         style="opacity:1;fill:#3f3d99;stroke:none" />
      <circle
         cx="262"
         cy="50"
         id="ellipse35"
         r="1.5"
         style="opacity:1;fill:#3f3d99;stroke:none" />
      <circle
         cx="276"
         cy="49"
         id="ellipse37"
         r="1.5"
         style="opacity:1;fill:#3f3d99;stroke:none" />
      <circle
         cx="291"
         cy="49"
         id="ellipse39"
         r="1.5"
         style="opacity:1;fill:#3f3d99;stroke:none" />
      <circle
         cx="305"
         cy="48"
         id="ellipse41"
         r="1.5"
         style="opacity:1;fill:#3f3d99;stroke:none" />
      <circle
         cx="320"
         cy="48"
         id="ellipse43"
         r="1.5"
         style="opacity:1;fill:#3f3d99;stroke:none" />
      <circle
         cx="335"
         cy="47"
         id="ellipse45"
         r="1.5"
         style="opacity:1;fill:#3f3d99;stroke:none" />
      <circle
         cx="349"
         cy="47"
         id="ellipse47"
         r="1.5"
         style="opacity:1;fill:#3f3d99;stroke:none" />
      <circle
         cx="364"
         cy="46"
         id="ellipse49"
         r="1.5"
         style="opacity:1;fill:#3f3d99;stroke:none" />
      <polyline
         points="72.176,38.8966 75.0383,38.8966 77.9007,38.8966 84.1068,38.8966 89.9017,38.8966 95.583,38.8966 101.746,38.8966 107.497,38.8966 113.73,38.8966 119.85,38.8966 125.558,38.8966 131.747,38.8966 137.526,38.8966 143.19,38.8966 149.336,38.8966 155.071,38.8966 161.288,38.8966 167.39,38.8966 173.082,38.8966 179.255,38.8966 185.017,38.8966 191.26,38.8966 197.39,38.8966 203.108,38.8966 209.308,38.8966 215.096,38.8966 220.771,38.8966 226.928,38.8966 232.673,38.8966 238.899,38.8966 245.012,38.8966 250.714,38.8966 256.897,38.8966 262.669,38.8966 268.328,38.8966 274.468,38.8966 280.196,38.8966 286.406,38.8966 292.205,38.8966 297.89,38.8966 304.057,38.8966 309.812,38.8966 316.049,38.8966 322.173,38.8966 327.885,38.8966 334.078,38.8966 339.86,38.8966 345.529,38.8966 351.679,38.8966 357.418,38.8966 360.621,38.8966 363.824,38.8966 "
         id="polyline51"
         style="fill:none;stroke:#3f3d99;stroke-width:1.38955903px;stroke-dasharray:5.55823617, 5.55823617;stroke-opacity:1" />
      <polyline
         points="86.7584,189.104 86.7584,185.518 "
         id="polyline53"
         style="fill:none;stroke:#000000;stroke-width:0.27791181px;stroke-opacity:1" />
    </g>
    <g
       clip-path="url(#cp3)"
       id="g62">
      <clipPath
         id="cp3">
        <polygon
           points="371,205 371,5 66,5 66,205 "
           id="polygon65" />
      </clipPath>
      <polyline
         points="101.341,189.104 101.341,185.518 "
         id="polyline67"
         style="fill:none;stroke:#000000;stroke-width:0.27791181px;stroke-opacity:1" />
    </g>
    <g
       clip-path="url(#cp5)"
       id="g76">
      <clipPath
         id="cp5">
        <polygon
           points="371,205 371,5 66,5 66,205 "
           id="polygon79" />
      </clipPath>
      <polyline
         points="115.923,189.104 115.923,185.518 "
         id="polyline81"
         style="fill:none;stroke:#000000;stroke-width:0.27791181px;stroke-opacity:1" />
    </g>
    <g
       clip-path="url(#cp7)"
       id="g90">
      <clipPath
         id="cp7">
        <polygon
           points="371,205 371,5 66,5 66,205 "
           id="polygon93" />
      </clipPath>
      <polyline
         points="130.506,189.104 130.506,185.518 "
         id="polyline95"
         style="fill:none;stroke:#000000;stroke-width:0.27791181px;stroke-opacity:1" />
    </g>
    <g
       clip-path="url(#cp9)"
       id="g104">
      <clipPath
         id="cp9">
        <polygon
           points="371,205 371,5 66,5 66,205 "
           id="polygon107" />
      </clipPath>
      <polyline
         points="145.088,189.104 145.088,185.518 "
         id="polyline109"
         style="fill:none;stroke:#000000;stroke-width:0.27791181px;stroke-opacity:1" />
    </g>
    <g
       clip-path="url(#cp11)"
       id="g118">
      <clipPath
         id="cp11">
        <polygon
           points="371,205 371,5 66,5 66,205 "
           id="polygon121" />
      </clipPath>
      <polyline
         points="159.67,189.104 159.67,185.518 "
         id="polyline123"
         style="fill:none;stroke:#000000;stroke-width:0.27791181px;stroke-opacity:1" />
    </g>
    <g
       clip-path="url(#cp13)"
       id="g132">
      <clipPath
         id="cp13">
        <polygon
           points="371,205 371,5 66,5 66,205 "
           id="polygon135" />
      </clipPath>
      <polyline
         points="174.253,189.104 174.253,185.518 "
         id="polyline137"
         style="fill:none;stroke:#000000;stroke-width:0.27791181px;stroke-opacity:1" />
    </g>
    <g
       clip-path="url(#cp15)"
       id="g146">
      <clipPath
         id="cp15">
        <polygon
           points="371,205 371,5 66,5 66,205 "
           id="polygon149" />
      </clipPath>
      <polyline
         points="188.835,189.104 188.835,185.518 "
         id="polyline151"
         style="fill:none;stroke:#000000;stroke-width:0.27791181px;stroke-opacity:1" />
    </g>
    <g
       clip-path="url(#cp17)"
       id="g160">
      <clipPath
         id="cp17">
        <polygon
           points="371,205 371,5 66,5 66,205 "
           id="polygon163" />
      </clipPath>
      <polyline
         points="203.418,189.104 203.418,185.518 "
         id="polyline165"
         style="fill:none;stroke:#000000;stroke-width:0.27791181px;stroke-opacity:1" />
    </g>
    <g
       clip-path="url(#cp19)"
       id="g174">
      <clipPath
         id="cp19">
        <polygon
           points="371,205 371,5 66,5 66,205 "
           id="polygon177" />
      </clipPath>
      <polyline
         points="218,189.104 218,185.518 "
         id="polyline179"
         style="fill:none;stroke:#000000;stroke-width:0.27791181px;stroke-opacity:1" />
    </g>
    <g
       clip-path="url(#cp21)"
       id="g188">
      <clipPath
         id="cp21">
        <polygon
           points="371,205 371,5 66,5 66,205 "
           id="polygon191" />
      </clipPath>
      <polyline
         points="232.582,189.104 232.582,185.518 "
         id="polyline193"
         style="fill:none;stroke:#000000;stroke-width:0.27791181px;stroke-opacity:1" />
    </g>
    <g
       clip-path="url(#cp23)"
       id="g202">
      <clipPath
         id="cp23">
        <polygon
           points="371,205 371,5 66,5 66,205 "
           id="polygon205" />
      </clipPath>
      <polyline
         points="247.165,189.104 247.165,185.518 "
         id="polyline207"
         style="fill:none;stroke:#000000;stroke-width:0.27791181px;stroke-opacity:1" />
    </g>
    <g
       clip-path="url(#cp25)"
       id="g216">
      <clipPath
         id="cp25">
        <polygon
           points="371,205 371,5 66,5 66,205 "
           id="polygon219" />
      </clipPath>
      <polyline
         points="261.747,189.104 261.747,185.518 "
         id="polyline221"
         style="fill:none;stroke:#000000;stroke-width:0.27791181px;stroke-opacity:1" />
    </g>
    <g
       clip-path="url(#cp27)"
       id="g230">
      <clipPath
         id="cp27">
        <polygon
           points="371,205 371,5 66,5 66,205 "
           id="polygon233" />
      </clipPath>
      <polyline
         points="276.33,189.104 276.33,185.518 "
         id="polyline235"
         style="fill:none;stroke:#000000;stroke-width:0.27791181px;stroke-opacity:1" />
    </g>
    <g
       clip-path="url(#cp29)"
       id="g244">
      <clipPath
         id="cp29">
        <polygon
           points="371,205 371,5 66,5 66,205 "
           id="polygon247" />
      </clipPath>
      <polyline
         points="290.912,189.104 290.912,185.518 "
         id="polyline249"
         style="fill:none;stroke:#000000;stroke-width:0.27791181px;stroke-opacity:1" />
    </g>
    <g
       clip-path="url(#cp31)"
       id="g258">
      <clipPath
         id="cp31">
        <polygon
           points="371,205 371,5 66,5 66,205 "
           id="polygon261" />
      </clipPath>
      <polyline
         points="305.494,189.104 305.494,185.518 "
         id="polyline263"
         style="fill:none;stroke:#000000;stroke-width:0.27791181px;stroke-opacity:1" />
    </g>
    <g
       clip-path="url(#cp33)"
       id="g272">
      <clipPath
         id="cp33">
        <polygon
           points="371,205 371,5 66,5 66,205 "
           id="polygon275" />
      </clipPath>
      <polyline
         points="320.077,189.104 320.077,185.518 "
         id="polyline277"
         style="fill:none;stroke:#000000;stroke-width:0.27791181px;stroke-opacity:1" />
    </g>
    <g
       clip-path="url(#cp35)"
       id="g286">
      <clipPath
         id="cp35">
        <polygon
           points="371,205 371,5 66,5 66,205 "
           id="polygon289" />
      </clipPath>
      <polyline
         points="334.659,189.104 334.659,185.518 "
         id="polyline291"
         style="fill:none;stroke:#000000;stroke-width:0.27791181px;stroke-opacity:1" />
    </g>
    <g
       clip-path="url(#cp37)"
       id="g300">
      <clipPath
         id="cp37">
        <polygon
           points="371,205 371,5 66,5 66,205 "
           id="polygon303" />
      </clipPath>
      <polyline
         points="349.242,189.104 349.242,185.518 "
         id="polyline305"
         style="fill:none;stroke:#000000;stroke-width:0.27791181px;stroke-opacity:1" />
    </g>
    <g
       clip-path="url(#cp39)"
       id="g314">
      <clipPath
         id="cp39">
        <polygon
           points="371,205 371,5 66,5 66,205 "
           id="polygon317" />
      </clipPath>
      <polyline
         points="66.1,189.104 361.627,189.104 "
         id="polyline319"
         style="fill:none;stroke:#000000;stroke-width:0.27791181px;stroke-opacity:1" />
    </g>
    <g
       clip-path="url(#cp40)"
       id="g321">
      <clipPath
         id="cp40">
        <polygon
           points="371,205 371,5 66,5 66,205 "
           id="polygon324" />
      </clipPath>
      <polygon
         points="361.212,190.579 360.92,191.294 360.786,191.598 369.9,189.104 360.786,186.705 360.786,186.705 360.92,186.978 361.212,187.632 361.367,188.026 361.502,188.423 361.595,188.792 361.627,189.104 361.595,189.385 361.502,189.75 361.367,190.16 "
         id="polygon326"
         style="opacity:1;fill:#000000;fill-rule:evenodd;stroke:none" />
    </g>
    <g
       clip-path="url(#cp41)"
       id="g328">
      <clipPath
         id="cp41">
        <polygon
           points="371,205 371,5 66,5 66,205 "
           id="polygon331" />
      </clipPath>
      <polyline
         points="72.176,192.859 72.176,13.3728 "
         id="polyline333"
         style="fill:none;stroke:#000000;stroke-width:0.27791181px;stroke-opacity:1" />
    </g>
    <g
       clip-path="url(#cp42)"
       id="g335">
      <clipPath
         id="cp42">
        <polygon
           points="371,205 371,5 66,5 66,205 "
           id="polygon338" />
      </clipPath>
      <polygon
         points="73.6512,13.788 74.3662,14.0804 74.6703,14.214 72.176,5.1 69.7776,14.214 69.7776,14.214 70.0503,14.0804 70.7048,13.788 71.0984,13.6327 71.4952,13.4983 71.8647,13.4049 72.176,13.3728 72.4578,13.4049 72.8223,13.4983 73.2325,13.6327 "
         id="polygon340"
         style="opacity:1;fill:#000000;fill-rule:evenodd;stroke:none" />
    </g>
    <rect
       style="opacity:0.2;fill:#ff0000;fill-opacity:1;fill-rule:evenodd;stroke:none;stroke-width:0.69477952;stroke-linecap:butt;stroke-linejoin:miter;stroke-miterlimit:4;stroke-dasharray:none;stroke-dashoffset:0;stroke-opacity:1"
       id="rect4476"
       width="300.38705"
       height="38.271751"
       x="71.788254"
       y="19.622612" />
    <path
       style="fill:none;fill-rule:evenodd;stroke:#000000;stroke-width:1.38955903;stroke-linecap:butt;stroke-linejoin:miter;stroke-miterlimit:4;stroke-dasharray:5.55823617, 5.55823617;stroke-dashoffset:0;stroke-opacity:1"
       d="M 203,54.999999 203.418,187.311"
       id="path4480"
       inkscape:connector-curvature="0" />
    <text
       xml:space="preserve"
       style="font-style:normal;font-weight:normal;font-size:24.31728172px;line-height:125%;font-family:sans-serif;letter-spacing:0px;word-spacing:0px;fill:#000000;fill-opacity:1;stroke:none;stroke-width:1px;stroke-linecap:butt;stroke-linejoin:miter;stroke-opacity:1"
       x="56.945744"
       y="45.003613"
       id="text4482"
       sodipodi:linespacing="125%"><tspan
         sodipodi:role="line"
         id="tspan4484"
         x="56.945744"
         y="45.003613"
         style="font-size:17.36948776px">a</tspan></text>
    <text
       xml:space="preserve"
       style="font-style:normal;font-weight:normal;font-size:24.31728172px;line-height:125%;font-family:sans-serif;letter-spacing:0px;word-spacing:0px;fill:#000000;fill-opacity:1;stroke:none;stroke-width:1px;stroke-linecap:butt;stroke-linejoin:miter;stroke-opacity:1"
       x="197.10712"
       y="206.12788"
       id="text4486"
       sodipodi:linespacing="125%"><tspan
         sodipodi:role="line"
         id="tspan4488"
         x="197.10712"
         y="206.12788"
         style="font-size:17.36948776px">N</tspan></text>
    <text
       xml:space="preserve"
       style="font-style:normal;font-weight:normal;font-size:24.31728172px;line-height:125%;font-family:sans-serif;letter-spacing:0px;word-spacing:0px;fill:#000000;fill-opacity:1;stroke:none;stroke-width:1px;stroke-linecap:butt;stroke-linejoin:miter;stroke-opacity:1"
       x="360.31311"
       y="179.90886"
       id="text4490"
       sodipodi:linespacing="125%"><tspan
         sodipodi:role="line"
         id="tspan4492"
         x="360.31311"
         y="179.90886"
         style="font-size:17.36948776px">n</tspan></text>
  </g>
  <defs
     id="defs342" />
</svg>
